# xmcd CD database file
#
# Track frame offsets:
#	150
#	15080
#	35892
#	53330
#	64439
#	83001
#	101283
#	118439
#	130813
#	144454
#	164141
#	177641
#	187625
#	205906
#	222359
#	245422
#	264547
#	290281
#	303781
#	322660
#	338969
#	350500
#
# Disc length: 4802 seconds
#
# Revision: 0
# Processed by: cddbd v1.5.2PL0 Copyright (c) Steve Scherf et al.
# Submitted via: CDex 1.70beta2
#
DISCID=4012c016
DTITLE=DJ FIXIE PRES. - In the City - Electro Beatz CD4
DYEAR=2007
DGENRE=Electro House
TTITLE0=001 - Lui 2007 (Lars Sea Mix)PP 07erELH128.00# - RE-FLEX
TTITLE1=002 - What Is Love 2007 AM 07erELH128.02# - Speedmaster Project
TTITLE2=003 - DISCO TIGER (Extended club mix) AM 07erELH128.00# - PAM PERO
TTITLE3=004 - Haute Couture  AM 07erELH128.06# - Paris
TTITLE4=005 - One More Night (Orginal Mix)geile Version AM 07erELH128.43# - The Drill
TTITLE5=006 - MAGIC FEET (Nari and Milani 2006 RMX)arabian aventure 2 style AM 07erELH128.63# - Unconditional
TTITLE6=007 - like dis (fedde le grande rmx) AM 07erELH128.69# - Olav Basoski feat MC Spyder
TTITLE7=008 - Missing (Delanos Vocal Mix)PP 07erELH129.01# - DELANO and CROCKETT
TTITLE8=009 - Just For You Promo For UA DANCE PLUS 122 07erELH129.00# - Denis Naidanow
TTITLE9=010 - Tell Me Why (2Elements Remix)PP 07erELH129# - SUPERMODE
TTITLE10=011 - Tilt My Hat (Kam Dennys Vandalism Remix) CD Pool Club - March 06 06erELH129# - Andy J
TTITLE11=012 - Are U On Drugs (Radio Mix)PP 07erELH129.01# - The Brothers Funk
TTITLE12=013 - Stomp That Shit DoD 07erELH129.01# - Tristan Garnier
TTITLE13=014 - KILLER (Electronic flipside mix) AM 07erELH129.01# - Twisted Society
TTITLE14=015 - Treat Me Right (1000 Watts RMX) AM 07erELH129.03# - Taka Boom
TTITLE15=016 - Tennessee (Fuzzy Hair Vocal Mix) DJ Promotion CD Pool Tech Mix 80 07erELH129.16# - Bob Sinclar Feat. Pharrell Lennon
TTITLE16=017 - E For Electro AM 07erELH129.52# - Johnny Crockett
TTITLE17=018 - Keep On Jumping (A1 Electro Movement Mix)MoS 07erELH129# - CORENELL
TTITLE18=019 - Back To Hawaii (Elektro Mix)Magnum Theme PPTHE EGG STYLE 07erELH132.70# - PICCO
TTITLE19=020 - Ready 2 Go (DJ Zorneus Space Rave Remix)AM 07erELH131.99# - Hollywood Superstar
TTITLE20=021 - i cant stand it (b1 marc van d) AM 07erELH133.80# - Alex M.
TTITLE21=022 - Kickin In The Beat 2006 (Phunktros Club Mix) CD Pool - Remix January 2007 07erELH130.59# - Phunkin Djs Feat. Pamela Fernandez
EXTD=YEAR: 2007
EXTT0=
EXTT1=
EXTT2=
EXTT3=
EXTT4=
EXTT5=
EXTT6=
EXTT7=
EXTT8=
EXTT9=
EXTT10=
EXTT11=
EXTT12=
EXTT13=
EXTT14=
EXTT15=
EXTT16=
EXTT17=
EXTT18=
EXTT19=
EXTT20=
EXTT21=
PLAYORDER=
